<svg width="20" height="19" viewBox="0 0 20 19" fill="none" xmlns="http://www.w3.org/2000/svg">
<path d="M5.69532 17.2185H15.9375V18.406L18.9062 16.3278L15.9375 14.2496V15.4371H5.69532C4.68743 15.4371 3.75675 14.8997 3.25287 14.0269C2.74894 13.1541 2.74894 12.0794 3.25287 11.2065C3.75681 10.3337 4.68752 9.79639 5.69532 9.79639H5.84376V8.01514H5.69532C4.47516 8.01514 3.30474 8.49979 2.44157 9.36296C1.5784 10.2261 1.09375 11.3965 1.09375 12.6167C1.09375 13.8369 1.5784 15.0073 2.44157 15.8705C3.30474 16.7336 4.47514 17.2183 5.69532 17.2183V17.2185Z" fill="white"/>
<path d="M17.1249 5.19534C17.1249 5.94347 16.8281 6.66041 16.2989 7.18958C15.7697 7.71875 15.0527 8.01564 14.3046 8.01564H14.1562V9.79689H14.3046C15.5248 9.79689 16.6952 9.31224 17.5584 8.44907C18.4216 7.5859 18.9062 6.4155 18.9062 5.19532C18.9062 3.97514 18.4216 2.80474 17.5584 1.94157C16.6952 1.0784 15.5248 0.59375 14.3046 0.59375H1.09375V2.375H14.3046C15.0528 2.375 15.7697 2.67187 16.2989 3.20106C16.828 3.73025 17.1249 4.44724 17.1249 5.19534Z" fill="white"/>
<path d="M12.6481 8.31248L12.8203 8.21748C12.9547 8.13658 13.0029 7.9644 12.9302 7.82561L12.4492 7.03593C12.3654 6.89491 12.1836 6.84816 12.0425 6.93202L11.8674 7.02702C11.759 7.08417 11.6269 7.07378 11.5289 7.00031C11.3568 6.87265 11.1697 6.76799 10.9708 6.68859C10.8588 6.64703 10.7823 6.54164 10.7779 6.42141V6.23438C10.7779 6.15571 10.7467 6.08001 10.691 6.02434C10.6354 5.96867 10.5597 5.9375 10.481 5.9375H9.52207C9.35804 5.9375 9.22519 6.07035 9.22519 6.23438V6.42438C9.22074 6.54461 9.14429 6.65 9.03223 6.69155C8.83332 6.77097 8.6463 6.87562 8.4741 7.00327C8.37614 7.07674 8.24403 7.08714 8.13568 7.02999L7.96052 6.93499C7.8195 6.85112 7.63767 6.89788 7.5538 7.03889L7.07288 7.82857C7.00014 7.96736 7.04838 8.13954 7.18272 8.22045L7.35491 8.31545C7.45733 8.3674 7.5167 8.47724 7.50334 8.59153C7.47143 8.80825 7.47143 9.02795 7.50334 9.24466C7.5167 9.35896 7.45733 9.4688 7.35491 9.52075L7.18272 9.61575C7.04838 9.69665 7.00014 9.86883 7.07288 10.0076L7.5538 10.7973C7.63767 10.9383 7.8195 10.9851 7.96052 10.9012L8.13568 10.8062C8.24403 10.7491 8.37614 10.7595 8.4741 10.8329C8.64703 10.9554 8.83406 11.0548 9.03223 11.1298C9.1443 11.1714 9.22074 11.2768 9.22519 11.397V11.5781C9.22519 11.6567 9.25636 11.7324 9.31203 11.7881C9.36769 11.8438 9.4434 11.875 9.52207 11.875H10.478C10.5567 11.875 10.6324 11.8438 10.688 11.7881C10.7437 11.7325 10.7749 11.6567 10.7749 11.5781V11.3999C10.7793 11.2797 10.8558 11.1743 10.9678 11.1328C11.166 11.0578 11.353 10.9584 11.526 10.8359C11.6239 10.7624 11.756 10.752 11.8644 10.8092L12.0396 10.9042C12.1806 10.988 12.3624 10.9413 12.4463 10.8003L12.9272 10.0106C12.9999 9.8718 12.9517 9.69962 12.8174 9.61872L12.6481 9.49997C12.5457 9.44801 12.4863 9.33817 12.4997 9.22388C12.5316 9.00716 12.5316 8.78747 12.4997 8.57075C12.4938 8.46313 12.5517 8.36147 12.6481 8.31248ZM9.99992 10.0937C9.51974 10.0937 9.08629 9.80429 8.90298 9.36045C8.71892 8.91663 8.8206 8.406 9.16052 8.06681C9.49971 7.72688 10.0103 7.62522 10.4542 7.80927C10.898 7.99259 11.1874 8.42603 11.1874 8.90621C11.1874 9.22089 11.062 9.52297 10.8394 9.74563C10.6167 9.9683 10.3146 10.0937 9.99992 10.0937Z" fill="white"/>
</svg>
